<?xml version="1.0" standalone="no"?>
<!DOCTYPE svg PUBLIC "-//W3C//DTD SVG 20010904//EN"
 "http://www.w3.org/TR/2001/REC-SVG-20010904/DTD/svg10.dtd">
<svg version="1.0" xmlns="http://www.w3.org/2000/svg"
 width="2048.000000pt" height="2048.000000pt" viewBox="0 0 2048.000000 2048.000000"
 preserveAspectRatio="xMidYMid meet">
<metadata>
Created by potrace 1.11, written by Peter Selinger 2001-2013
</metadata>
<g transform="translate(0.000000,2048.000000) scale(0.100000,-0.100000)"
fill="#000000" stroke="none">
<path d="M10608 17705 c-146 -31 -312 -123 -397 -222 -45 -53 -102 -155 -121
-218 -6 -22 -30 -79 -53 -127 l-42 -86 -60 -6 c-56 -5 -718 -9 -5180 -36 -940
-6 -1747 -13 -1792 -16 l-83 -6 0 -251 c0 -139 -4 -641 -10 -1117 -15 -1349
-29 -2624 -45 -4135 -8 -764 -19 -1804 -25 -2310 -5 -506 -17 -1550 -25 -2320
-8 -770 -20 -1794 -25 -2275 -5 -481 -10 -948 -10 -1037 l0 -163 7271 0 7271
0 -6 338 c-3 185 -8 555 -11 822 -6 558 -28 2441 -50 4290 -8 701 -19 1671
-25 2155 -5 484 -14 1247 -20 1695 -5 448 -17 1432 -26 2185 -8 754 -18 1563
-22 1798 l-7 429 -530 -1 c-291 -1 -1063 -6 -1715 -11 -652 -5 -1653 -12
-2226 -16 l-1041 -7 -7 39 c-12 62 -55 164 -101 235 -109 170 -299 304 -510
360 -102 27 -282 34 -377 14z m377 -125 c190 -60 345 -179 442 -340 29 -48 70
-174 78 -240 15 -126 -39 -287 -129 -387 -59 -66 -154 -125 -253 -160 -71 -25
-91 -27 -218 -27 -132 0 -146 2 -232 31 -109 38 -176 75 -258 140 -282 228
-327 609 -99 838 71 71 170 127 276 155 99 27 290 22 393 -10z m5995 -805 c0
-96 4 -522 10 -947 5 -425 14 -1169 20 -1653 6 -484 15 -1260 20 -1725 5 -465
17 -1423 25 -2130 8 -707 19 -1667 25 -2135 5 -467 14 -1239 20 -1715 6 -476
15 -1232 20 -1680 5 -448 10 -916 11 -1040 l0 -225 -7126 -3 -7127 -2 6 402
c3 222 11 837 16 1368 6 531 15 1372 20 1870 6 498 17 1533 25 2300 16 1488
27 2496 50 4605 8 726 18 1649 21 2052 l7 731 101 6 c56 3 614 8 1241 11 627
3 1977 12 3000 20 1023 8 2000 15 2170 14 287 0 308 -1 280 -15 -192 -101
-349 -285 -420 -494 -125 -368 30 -809 376 -1067 75 -56 88 -70 83 -87 -4 -12
-29 -90 -56 -174 -43 -133 -47 -156 -36 -173 14 -22 275 -129 313 -129 13 0
30 6 37 13 7 8 49 82 93 166 l80 152 60 -7 c33 -4 110 -7 170 -6 416 4 773
244 902 607 59 166 57 398 -5 577 l-20 56 60 124 c33 67 71 152 83 188 13 36
33 92 45 125 11 33 24 83 28 110 l7 50 420 3 c231 2 1190 9 2130 16 941 7
1959 14 2263 14 l552 2 0 -175z m-6841 -4 c155 -305 523 -497 867 -452 107 14
169 33 262 80 60 31 63 31 51 9 -25 -47 -135 -144 -204 -180 -114 -59 -173
-72 -315 -72 -137 0 -233 20 -333 70 -177 89 -343 268 -399 432 -26 77 -30
185 -9 246 l14 40 17 -55 c9 -30 31 -83 49 -118z m-201 -9 c8 -147 90 -302
236 -448 168 -167 313 -238 540 -263 188 -22 402 33 543 139 l52 40 23 -58
c19 -49 22 -75 22 -182 0 -202 -34 -312 -142 -466 -109 -154 -298 -272 -515
-321 -98 -22 -306 -21 -412 2 -391 84 -697 352 -796 697 -28 100 -36 270 -16
365 33 154 98 274 208 383 66 65 215 169 244 170 6 0 11 -26 13 -58z m70
-1581 c20 -10 67 -28 103 -40 l67 -22 -61 -117 c-33 -64 -62 -119 -63 -121 -7
-7 -174 62 -174 72 0 24 74 247 82 247 5 0 25 -8 46 -19z"/>
<path d="M6137 13009 c-52 -114 -83 -203 -117 -332 -31 -118 -33 -147 -7 -147
9 0 25 44 48 128 l34 127 103 3 c56 1 102 -1 102 -6 0 -5 -13 -53 -30 -108
-25 -84 -27 -101 -16 -113 20 -19 32 -7 40 38 8 52 113 367 131 395 13 19 13
25 1 42 -13 17 -16 17 -29 4 -8 -8 -29 -59 -47 -112 l-32 -98 -103 0 -104 0
25 63 c14 34 36 83 49 108 25 46 25 46 5 64 -19 18 -20 16 -53 -56z"/>
<path d="M9342 12953 c-57 -111 -122 -290 -122 -335 0 -42 31 -34 43 12 5 19
12 38 16 43 4 4 27 -15 50 -43 24 -28 51 -50 62 -50 29 0 23 22 -16 60 l-35
34 24 15 c27 18 67 65 85 99 16 29 -2 62 -33 62 -13 0 -40 -11 -60 -25 -20
-13 -36 -22 -36 -19 0 3 25 55 55 115 31 61 53 115 50 120 -16 24 -37 1 -83
-88z m30 -205 c-23 -21 -48 -38 -57 -38 -30 0 -11 32 40 67 63 44 74 25 17
-29z"/>
<path d="M7200 13030 c0 -12 -74 -216 -96 -266 -35 -80 -42 -192 -12 -182 6 2
17 31 24 64 12 62 67 216 109 305 18 39 21 57 14 71 -10 19 -39 25 -39 8z"/>
<path d="M9775 13028 c-2 -7 -25 -68 -49 -135 -52 -140 -79 -240 -72 -259 9
-23 34 -16 58 17 23 32 123 109 141 109 6 0 7 -20 3 -50 -6 -42 -3 -53 14 -70
16 -16 24 -18 40 -10 25 13 26 30 2 37 -16 4 -18 12 -14 54 4 38 1 54 -13 69
-24 26 -45 20 -118 -37 -68 -52 -68 -59 0 121 24 65 43 127 41 139 -4 24 -26
35 -33 15z"/>
<path d="M11235 12973 c-14 -31 -32 -80 -41 -110 l-15 -52 -44 6 c-39 5 -46 2
-71 -23 -52 -56 -79 -145 -52 -172 19 -19 62 -14 98 13 l34 25 11 -42 c6 -26
16 -44 26 -46 14 -2 17 12 22 90 5 91 36 205 82 300 10 20 15 43 12 52 -13 32
-37 16 -62 -41z m-77 -226 c3 -21 -5 -35 -28 -57 -31 -29 -75 -48 -86 -37 -10
10 9 55 38 91 37 45 71 46 76 3z"/>
<path d="M10953 12940 c-27 -42 -6 -75 28 -44 22 20 22 57 -1 62 -8 1 -21 -7
-27 -18z"/>
<path d="M8616 12928 c-8 -13 -20 -35 -27 -51 -8 -17 -24 -30 -43 -35 -35 -9
-42 -35 -10 -40 20 -3 20 -4 6 -72 -13 -57 -13 -74 -2 -100 24 -57 83 -65 116
-15 22 33 15 38 -28 21 -20 -9 -38 -12 -42 -9 -10 11 -5 106 8 143 12 33 16
35 67 40 39 4 54 9 54 20 0 10 -13 16 -42 18 -24 2 -43 5 -43 8 0 3 7 18 15
34 25 48 -1 82 -29 38z"/>
<path d="M8199 12851 c-99 -62 -115 -121 -49 -181 22 -20 37 -40 33 -43 -3 -4
-27 -7 -51 -7 -44 0 -45 0 -27 -20 20 -22 83 -27 116 -10 31 17 22 45 -26 88
-25 22 -45 48 -45 57 0 22 69 90 99 98 25 6 26 -1 6 -30 -13 -18 -13 -22 0
-33 11 -9 19 -7 40 14 30 30 32 57 7 79 -26 24 -52 21 -103 -12z"/>
<path d="M7265 12858 c-2 -7 -11 -35 -19 -63 -28 -89 -39 -165 -25 -181 21
-26 48 -15 82 32 l32 46 3 -39 c4 -38 25 -73 47 -73 36 0 126 138 141 219 11
55 -17 34 -53 -39 -17 -36 -45 -81 -62 -100 l-30 -35 0 35 c-1 19 5 58 13 87
10 37 11 54 3 62 -19 19 -25 13 -67 -58 -41 -68 -66 -98 -75 -89 -6 5 18 93
39 142 12 29 13 42 5 52 -14 17 -28 18 -34 2z"/>
<path d="M6492 12840 c-94 -57 -120 -188 -48 -236 32 -20 63 -13 101 21 38 36
19 56 -24 24 -26 -19 -34 -21 -57 -10 -23 10 -26 16 -21 48 8 45 10 47 37 33
40 -21 120 32 120 80 0 42 -65 66 -108 40z m62 -55 c-8 -20 -63 -40 -75 -28
-16 16 49 67 67 53 7 -7 11 -17 8 -25z"/>
<path d="M10728 12835 c-54 -29 -78 -58 -78 -97 0 -28 30 -63 62 -74 43 -13
11 -30 -49 -25 -30 2 -29 -14 1 -34 28 -18 88 -12 106 11 24 28 6 51 -75 99
-17 10 -17 13 -2 36 17 25 84 69 106 69 6 0 11 -8 11 -18 0 -26 11 -34 27 -21
30 25 2 79 -40 79 -12 -1 -43 -12 -69 -25z"/>
<path d="M11373 12848 c-31 -15 -80 -93 -92 -147 -13 -58 6 -107 45 -117 47
-12 145 48 120 74 -4 4 -25 -3 -46 -16 -66 -37 -87 -29 -81 33 3 37 11 49 23
37 29 -29 89 -8 113 38 21 41 19 76 -7 94 -26 18 -44 19 -75 4z m57 -46 c0
-26 -29 -62 -49 -62 -31 0 -33 29 -4 56 31 28 53 31 53 6z"/>
<path d="M6881 12809 c-73 -74 -104 -176 -62 -199 30 -16 38 -13 85 30 47 43
56 48 56 26 0 -8 8 -24 19 -37 18 -22 19 -23 45 -5 31 20 29 41 -4 40 -22 -1
-22 1 -16 66 5 59 3 71 -15 94 -30 38 -62 34 -108 -15z m75 -55 c-29 -53 -99
-120 -115 -110 -14 9 28 92 69 136 28 30 33 32 46 18 14 -14 14 -18 0 -44z"/>
<path d="M7865 12840 c-4 -6 -1 -17 5 -25 9 -11 9 -31 1 -84 -11 -69 -7 -99
13 -113 18 -13 26 -9 62 30 l36 37 -29 -55 c-61 -119 -82 -174 -72 -192 13
-24 26 -23 35 5 4 12 29 70 55 128 73 158 101 241 86 251 -20 13 -26 9 -46
-30 -10 -20 -37 -57 -60 -82 l-41 -45 6 60 c4 33 7 68 6 78 -2 37 -42 62 -57
37z"/>
<path d="M8829 12827 c-81 -55 -123 -168 -79 -215 25 -26 44 -24 101 13 46 30
80 85 86 139 4 36 1 47 -18 65 -29 27 -48 27 -90 -2z m68 -43 c13 -34 -70
-154 -108 -154 -34 0 -9 87 42 141 30 32 56 37 66 13z"/>
<path d="M9066 12819 c-34 -29 -76 -117 -76 -158 0 -25 31 -51 61 -51 53 0
129 76 129 129 0 11 9 27 21 35 32 22 14 39 -33 31 -30 -5 -39 -4 -33 4 7 12
-11 41 -26 41 -5 0 -24 -14 -43 -31z m49 -55 c14 -9 25 -21 25 -28 -1 -22 -80
-96 -102 -96 -16 0 -8 42 17 90 14 28 28 50 31 50 2 0 16 -7 29 -16z"/>
<path d="M10046 12810 c-24 -22 -51 -40 -60 -40 -18 0 -22 -25 -6 -35 6 -3 10
-28 10 -55 0 -52 15 -76 55 -86 38 -9 105 34 105 68 0 26 -22 22 -50 -7 -35
-38 -64 -30 -68 18 l-3 37 40 0 c77 0 131 80 83 123 -29 27 -59 20 -106 -23z
m88 -9 c9 -14 -26 -48 -56 -55 -35 -8 -35 0 -1 36 27 28 47 35 57 19z"/>
<path d="M7658 12820 c-34 -26 -86 -109 -94 -148 -13 -63 36 -81 102 -36 l38
26 19 -26 c23 -32 66 -35 91 -7 25 27 11 47 -18 27 -36 -23 -45 -8 -43 77 2
67 -1 80 -17 93 -27 19 -49 18 -78 -6z m62 -47 c0 -19 -14 -41 -50 -75 -61
-58 -89 -65 -64 -15 24 48 83 117 100 117 9 0 14 -10 14 -27z"/>
<path d="M10352 12815 c-36 -30 -38 -30 -45 -5 -6 24 -39 26 -58 4 -11 -13
-10 -17 4 -25 22 -13 22 -19 -9 -96 -24 -58 -25 -67 -11 -80 14 -14 19 -9 50
53 40 79 69 109 104 109 33 0 52 27 34 49 -19 22 -35 20 -69 -9z"/>
<path d="M10915 12788 c-2 -7 -14 -39 -25 -70 -22 -59 -23 -109 -4 -115 17 -6
75 168 62 184 -13 16 -27 17 -33 1z"/>
<path d="M11511 12669 c-26 -24 -27 -35 -3 -47 24 -14 62 3 62 27 0 33 -33 44
-59 20z"/>
<path d="M7066 11725 c-28 -30 -43 -79 -52 -172 -5 -60 -10 -74 -26 -79 -26
-8 -30 -2 -32 45 -3 47 -20 71 -45 64 -19 -5 -41 -42 -41 -69 0 -9 13 -28 28
-44 26 -25 27 -30 17 -61 -15 -43 -39 -59 -60 -38 -17 17 -20 51 -10 122 7 40
5 47 -9 47 -23 0 -46 -58 -46 -113 0 -55 -24 -82 -46 -52 -18 24 -18 77 1 137
16 54 7 68 -30 44 -29 -19 -39 -65 -33 -141 7 -84 52 -120 93 -75 l18 20 22
-20 c12 -11 28 -20 37 -20 26 0 65 38 81 79 11 27 25 42 46 49 l31 11 0 -64
c0 -55 3 -65 20 -70 30 -10 40 2 40 48 0 32 9 55 36 95 20 30 39 51 42 47 4
-4 5 -47 4 -95 l-4 -89 28 -7 c24 -6 32 -2 60 30 30 35 33 36 39 16 4 -11 17
-28 31 -36 35 -23 70 -11 93 34 l20 37 1 -37 c0 -31 4 -39 24 -44 31 -7 40 -2
77 48 l29 41 0 -41 c0 -36 3 -42 25 -48 15 -4 34 0 48 9 22 14 77 108 92 155
11 36 -12 25 -25 -12 -16 -49 -70 -120 -81 -109 -6 6 -7 43 -3 90 l7 81 38 15
c22 9 39 21 39 27 0 7 -7 10 -16 6 -60 -23 -60 -23 -56 60 4 61 2 76 -9 72
-19 -6 -39 -47 -39 -80 0 -40 -10 -58 -31 -58 -25 0 -24 -15 1 -33 19 -13 20
-19 10 -61 -10 -47 -55 -126 -71 -126 -13 0 -11 92 3 143 6 24 8 52 5 62 -7
16 -9 16 -30 2 -20 -13 -25 -13 -42 0 -47 34 -116 -10 -140 -90 -16 -55 -52
-117 -66 -117 -9 0 -5 110 6 166 3 13 -3 29 -16 40 -26 24 -44 13 -89 -55 -43
-65 -53 -44 -15 32 41 85 47 207 9 207 -8 0 -25 -11 -38 -25z m42 -67 c-3 -24
-13 -59 -22 -78 l-16 -35 4 35 c11 89 19 120 28 120 7 0 9 -16 6 -42z m-178
-135 c0 -22 -2 -25 -10 -13 -13 20 -13 40 0 40 6 0 10 -12 10 -27z m481 8 l24
-19 -19 -54 c-23 -69 -47 -101 -68 -93 -43 17 -32 160 14 178 21 9 25 8 49
-12z"/>
<path d="M6073 11721 c-45 -21 -63 -45 -63 -86 0 -43 16 -62 85 -100 101 -57
120 -102 66 -156 -38 -38 -91 -40 -126 -4 -30 29 -32 45 -5 52 25 7 26 19 3
31 -60 31 -99 -60 -48 -108 36 -33 135 -40 185 -12 107 59 100 166 -15 224
-82 42 -106 86 -65 123 37 33 107 14 95 -26 -5 -14 -1 -19 14 -19 14 0 23 9
27 26 15 59 -75 91 -153 55z"/>
<path d="M7741 11694 c-32 -27 -42 -64 -17 -64 8 0 23 14 33 30 37 63 113 21
99 -55 -5 -24 -20 -45 -51 -71 -24 -19 -47 -44 -50 -55 -8 -23 11 -59 31 -59
19 0 30 28 15 43 -18 18 -14 24 39 59 34 22 54 44 65 70 21 53 19 65 -14 99
-40 40 -105 41 -150 3z"/>
<path d="M6393 11576 c-79 -21 -121 -92 -102 -174 19 -88 112 -108 176 -38 19
20 33 47 33 60 0 18 10 31 40 47 22 13 40 26 40 31 0 11 -7 10 -40 -7 -29 -15
-30 -15 -36 12 -14 60 -53 84 -111 69z m46 -29 c6 -8 14 -28 17 -45 5 -25 3
-32 -10 -32 -19 0 -56 35 -56 53 0 14 19 37 31 37 4 0 12 -6 18 -13z m-53 -92
c11 -8 32 -15 48 -15 21 0 27 -4 22 -16 -3 -9 -6 -19 -6 -24 0 -17 -32 -40
-55 -40 -36 0 -55 36 -55 101 0 64 12 86 21 39 4 -17 15 -37 25 -45z"/>
<path d="M7755 11366 c-11 -8 -16 -19 -12 -30 9 -23 34 -31 52 -16 20 16 19
46 -1 54 -20 8 -17 8 -39 -8z"/>
<path d="M9042 10343 c-71 -194 -85 -246 -77 -273 10 -33 32 -23 40 18 12 68
48 176 92 277 28 64 42 108 38 122 -12 51 -33 19 -93 -144z"/>
<path d="M6084 10490 c-3 -3 -24 -10 -47 -15 -48 -13 -59 -41 -14 -38 15 1 27
-2 27 -6 0 -15 -40 -124 -50 -136 -12 -14 -80 -217 -80 -238 0 -16 27 -31 33
-19 3 4 12 33 21 64 9 31 25 77 36 102 19 45 20 46 67 47 90 1 137 12 141 33
4 18 -1 19 -83 12 l-87 -6 6 25 c4 14 17 50 30 79 23 51 25 53 71 59 26 4 74
7 106 7 59 0 71 8 45 29 -14 12 -211 12 -222 1z"/>
<path d="M8278 10463 c-38 -95 -100 -302 -101 -338 -2 -30 2 -40 15 -43 13 -2
18 6 23 35 3 21 29 103 57 183 55 160 61 193 37 198 -11 2 -21 -9 -31 -35z"/>
<path d="M9605 10488 c-2 -7 -22 -60 -43 -118 -77 -207 -96 -271 -81 -281 21
-13 20 -14 82 56 32 36 67 70 78 76 19 10 20 7 17 -59 -3 -70 9 -102 38 -102
18 0 28 20 16 32 -7 7 -9 35 -5 73 6 67 -13 115 -45 115 -9 0 -40 -23 -69 -52
-29 -29 -53 -46 -53 -39 0 8 19 57 41 110 61 142 68 165 57 184 -11 20 -27 22
-33 5z"/>
<path d="M6335 10404 c-16 -24 -16 -28 -1 -42 15 -15 18 -15 38 6 18 17 20 26
12 39 -17 27 -30 26 -49 -3z"/>
<path d="M8122 10400 c-15 -32 -9 -50 14 -50 18 0 39 43 31 64 -10 25 -31 19
-45 -14z"/>
<path d="M9182 10418 c-27 -27 -2 -73 34 -66 26 5 26 20 1 51 -18 21 -26 24
-35 15z"/>
<path d="M8533 10313 c-38 -91 -104 -281 -115 -333 -6 -31 -8 -65 -4 -76 7
-18 8 -18 20 -2 7 10 26 61 41 113 28 93 29 95 58 95 40 0 112 35 137 67 43
55 13 115 -59 117 -35 1 -39 3 -38 25 3 39 -22 36 -40 -6z m117 -72 c0 -30
-109 -106 -126 -88 -12 12 19 68 45 82 29 16 81 20 81 6z"/>
<path d="M9324 10308 c-66 -45 -74 -70 -41 -141 26 -57 26 -57 5 -68 -15 -8
-26 -8 -44 2 -36 19 -43 1 -11 -27 31 -27 43 -29 82 -14 38 14 40 33 11 96
-30 66 -27 85 18 114 41 25 65 27 46 5 -10 -12 -10 -18 0 -30 17 -21 25 -19
38 10 16 35 15 51 -4 69 -23 24 -46 20 -100 -16z"/>
<path d="M7064 10320 c-50 -20 -114 -133 -114 -200 0 -32 39 -70 71 -70 51 0
119 46 104 70 -4 7 -19 3 -44 -11 -21 -11 -49 -19 -62 -17 -21 3 -24 8 -23 41
2 47 4 49 41 35 26 -10 34 -8 60 10 59 42 68 117 18 140 -14 7 -27 12 -28 11
-1 0 -11 -4 -23 -9z m46 -49 c0 -11 -11 -33 -24 -48 -24 -27 -26 -27 -42 -11
-17 17 -17 19 11 48 33 34 55 39 55 11z"/>
<path d="M7263 10318 c-20 -25 -33 -57 -58 -143 -19 -67 -22 -91 -14 -101 19
-23 29 -16 50 30 21 48 107 133 145 142 27 7 32 32 8 41 -20 8 -53 -8 -99 -48
l-37 -33 17 40 c9 21 19 44 21 50 8 18 -21 37 -33 22z"/>
<path d="M6787 10280 c-77 -68 -106 -132 -72 -160 15 -12 57 -6 107 15 16 6
16 1 -3 -67 -11 -40 -28 -81 -36 -90 -20 -22 -46 -23 -63 -3 -13 16 -40 20
-40 6 0 -19 41 -59 67 -64 21 -4 34 2 58 27 25 25 36 50 55 131 15 68 31 108
47 126 28 31 30 72 3 99 -32 32 -71 25 -123 -20z m81 -12 c16 -16 15 -38 -2
-38 -8 0 -16 -10 -20 -23 -8 -35 -106 -76 -106 -45 0 12 99 118 110 118 3 0
11 -5 18 -12z"/>
<path d="M6441 10253 c-52 -132 -52 -135 -40 -149 16 -19 32 -18 46 5 15 24
134 102 145 95 5 -3 6 -21 2 -40 -7 -38 16 -84 41 -84 17 0 20 25 6 35 -6 3
-7 27 -4 54 5 41 2 52 -16 70 -11 11 -25 21 -30 21 -5 0 -32 -16 -61 -35 -29
-19 -54 -35 -56 -35 -3 0 2 13 11 30 18 35 19 62 3 78 -19 19 -24 15 -47 -45z"/>
<path d="M7504 10293 c-3 -10 -19 -50 -36 -90 -17 -40 -28 -79 -24 -88 10 -26
36 -29 52 -6 19 26 133 105 141 97 4 -3 5 -26 5 -50 -2 -46 15 -76 44 -76 15
0 19 22 7 34 -5 4 -8 29 -8 56 0 33 -6 55 -19 69 -23 25 -44 21 -100 -20 -22
-16 -41 -27 -43 -25 -2 1 4 17 13 35 13 26 14 38 5 57 -12 28 -29 31 -37 7z"/>
<path d="M7840 10274 c-45 -41 -93 -131 -88 -166 2 -14 13 -26 29 -32 22 -7
34 -3 72 22 l45 32 16 -24 c8 -14 25 -27 36 -31 25 -8 70 18 70 40 0 18 -21
20 -37 4 -32 -32 -55 19 -34 74 14 37 -4 91 -35 105 -33 16 -28 17 -74 -24z
m70 -36 c0 -23 -10 -40 -40 -69 -47 -45 -80 -65 -80 -49 0 31 89 150 111 150
5 0 9 -14 9 -32z"/>
<path d="M8807 10283 c-34 -36 -67 -109 -67 -150 0 -39 32 -65 69 -56 56 13
121 82 121 129 0 10 8 26 17 36 25 27 4 44 -37 30 -23 -9 -30 -8 -29 1 6 46
-34 51 -74 10z m43 -42 c0 -5 9 -13 20 -16 30 -9 25 -28 -20 -74 -38 -39 -59
-49 -73 -35 -7 7 17 75 38 108 17 26 35 34 35 17z"/>
<path d="M9122 10195 c-32 -81 -36 -125 -11 -109 20 12 70 135 67 162 -6 48
-23 32 -56 -53z"/>
<path d="M6302 10254 c-5 -11 -19 -50 -31 -87 -15 -51 -18 -74 -11 -88 6 -10
14 -19 18 -19 4 0 20 41 36 91 26 82 27 92 13 106 -14 14 -16 13 -25 -3z"/>
<path d="M8095 10262 c-18 -13 -58 -150 -51 -177 4 -14 10 -25 15 -25 5 0 22
40 39 90 23 69 27 93 18 104 -6 9 -16 12 -21 8z"/>
<path d="M6065 9140 c-5 -17 -12 -20 -28 -15 -51 15 -145 28 -160 22 -24 -9
-41 -51 -33 -83 16 -61 95 -106 126 -69 19 23 4 35 -30 22 -24 -9 -32 -8 -49
8 -27 24 -27 62 -1 70 20 6 49 3 124 -17 l38 -9 -4 -127 c-3 -76 -10 -138 -18
-155 -25 -52 -97 -46 -93 8 2 22 -2 26 -20 23 -17 -2 -23 -11 -25 -35 -4 -40
27 -63 86 -63 34 0 49 6 72 28 38 38 50 88 50 208 l0 100 75 0 c64 -1 77 2 97
21 27 28 18 41 -14 19 -27 -19 -40 -20 -107 -5 -43 9 -50 14 -53 36 -4 33 -24
41 -33 13z"/>
<path d="M9462 9127 c-24 -25 -52 -87 -52 -115 0 -15 -53 -52 -75 -52 -3 0 -2
34 2 76 6 71 5 76 -13 72 -19 -3 -29 -26 -39 -90 -5 -29 -11 -38 -25 -38 -24
0 -26 -25 -4 -38 13 -7 16 -29 17 -113 l2 -104 32 -3 c28 -3 36 3 63 39 l30
42 0 -42 c0 -40 1 -42 28 -39 25 3 27 7 32 53 5 50 52 134 75 135 6 0 10 -36
10 -92 l0 -93 32 -3 c29 -3 36 2 61 41 15 24 36 63 46 85 11 23 22 42 25 42 4
0 7 -37 6 -82 l0 -83 32 -3 c28 -3 35 2 59 38 l27 41 13 -30 c14 -34 41 -51
79 -51 34 0 82 25 95 50 12 23 30 27 30 7 0 -26 45 -57 82 -57 56 0 128 74
153 158 12 41 -10 22 -39 -34 -16 -31 -40 -62 -52 -71 -33 -21 -76 -13 -91 17
-12 24 -10 26 24 38 71 24 105 77 78 118 -12 18 -25 24 -54 24 -32 0 -44 -6
-69 -34 -16 -18 -32 -49 -36 -68 -9 -50 -61 -108 -96 -108 -55 0 -82 54 -32
66 66 17 105 73 84 119 -10 21 -19 25 -53 25 -50 0 -92 -37 -108 -97 -12 -45
-49 -104 -69 -111 -11 -3 -13 10 -7 72 l7 76 -29 0 c-26 0 -30 3 -26 23 5 28
-19 62 -39 54 -23 -8 -27 -41 -11 -75 14 -29 13 -34 -13 -82 -28 -51 -50 -77
-60 -68 -2 3 -1 44 4 92 9 95 3 116 -34 116 -19 0 -33 -13 -64 -62 -47 -72
-54 -52 -14 36 30 67 43 168 24 191 -17 20 -23 19 -48 -8z m37 -59 c0 -18 -9
-55 -20 -83 l-19 -50 6 50 c9 83 16 115 25 115 5 0 9 -15 8 -32z m-99 -171
c-4 -49 -12 -72 -33 -100 -15 -21 -32 -37 -38 -37 -10 0 -12 85 -3 141 5 27
13 39 33 46 45 19 47 17 41 -50z m560 20 c0 -34 -18 -58 -54 -71 -17 -6 -18
-3 -13 30 11 69 67 102 67 41z m206 18 c11 -28 -6 -64 -37 -81 -39 -20 -44
-14 -29 30 18 57 54 84 66 51z"/>
<path d="M6776 9099 c-44 -52 -24 -131 22 -85 14 14 15 20 4 37 -10 16 -10 24
3 42 32 46 9 51 -29 6z"/>
<path d="M10255 9119 c-12 -18 5 -119 19 -119 14 0 40 105 30 121 -7 13 -41
11 -49 -2z"/>
<path d="M6893 8972 c-20 -15 -43 -60 -43 -81 0 -5 12 -25 26 -46 l25 -38 -20
-21 c-40 -42 -19 -86 32 -67 37 14 50 37 44 79 -5 35 -3 39 41 71 25 19 41 36
34 39 -6 2 -29 -11 -51 -29 -34 -27 -43 -30 -56 -19 -18 15 -20 71 -3 88 17
17 36 15 41 -5 4 -17 4 -17 12 0 17 41 -41 62 -82 29z m31 -198 c8 -20 -1 -34
-20 -34 -8 0 -14 8 -14 18 0 33 23 44 34 16z"/>
<path d="M10369 8961 c-36 -37 -38 -79 -5 -118 l24 -28 -24 -28 c-27 -33 -30
-50 -10 -66 20 -17 64 -3 83 26 13 20 14 31 6 54 -11 28 -9 31 33 61 41 29 55
48 36 48 -4 0 -23 -13 -42 -30 -41 -34 -48 -36 -66 -12 -19 24 -17 56 4 75 23
21 32 21 32 1 0 -17 21 -15 27 3 6 16 -25 43 -48 43 -12 0 -34 -13 -50 -29z
m39 -193 c-2 -13 -11 -24 -20 -26 -21 -4 -24 18 -6 36 19 19 30 14 26 -10z"/>
<path d="M6339 8964 c-23 -28 -16 -84 13 -108 26 -20 26 -22 12 -56 -8 -19
-20 -37 -26 -41 -33 -20 -63 39 -47 93 11 41 12 88 1 88 -24 0 -45 -44 -51
-105 -7 -66 -25 -95 -46 -74 -11 11 -12 91 0 162 8 52 3 56 -35 28 -21 -17
-25 -29 -28 -94 -5 -94 13 -137 58 -137 18 0 34 8 44 21 l14 21 11 -21 c27
-50 106 -11 131 65 6 19 18 34 25 34 7 0 20 2 28 6 10 4 16 -6 20 -36 8 -59
40 -90 93 -90 54 0 99 36 115 91 8 27 22 45 46 59 41 24 45 47 3 25 -38 -19
-37 -20 -45 13 -9 37 -44 72 -72 72 -46 0 -101 -31 -128 -71 -36 -55 -66 -51
-70 8 -2 23 -6 47 -10 53 -9 15 -41 12 -56 -6z m270 -17 c6 -8 14 -28 17 -45
6 -27 4 -32 -13 -32 -26 0 -43 19 -43 50 0 40 18 52 39 27z m-229 -29 c0 -25
-3 -29 -10 -18 -13 20 -13 50 0 50 6 0 10 -15 10 -32z m176 -65 c10 -7 30 -13
46 -13 36 0 38 -28 5 -66 -58 -67 -120 27 -90 136 7 24 7 23 14 -10 4 -18 15
-40 25 -47z"/>
<path d="M7436 8970 c-44 -14 -75 -49 -91 -104 -8 -27 -27 -63 -42 -78 -56
-59 -121 -21 -110 64 10 72 71 128 72 66 1 -35 11 -44 30 -28 20 17 20 66 -1
74 -99 38 -193 -99 -139 -203 17 -33 33 -41 82 -41 29 0 44 8 75 40 24 27 38
35 38 25 0 -9 11 -27 25 -40 54 -55 165 -11 181 71 5 28 27 54 46 54 2 0 3
-33 3 -72 0 -72 0 -73 28 -76 26 -3 27 -2 27 44 0 36 8 59 31 96 17 26 35 48
41 48 6 0 8 -36 6 -92 l-3 -93 28 -3 c27 -3 27 -3 27 60 0 56 3 66 31 96 47
50 53 43 47 -50 -3 -46 -4 -89 -1 -95 3 -7 17 -13 33 -13 29 0 63 32 75 71 23
72 20 -59 -4 -161 -12 -53 -14 -127 -3 -134 4 -2 18 4 31 13 21 16 25 31 34
118 l9 100 44 -5 c38 -4 47 -1 73 25 76 76 57 223 -29 223 -24 0 -35 -7 -48
-31 -9 -17 -23 -38 -30 -47 -10 -14 -10 -12 -2 11 12 34 13 77 2 77 -25 0 -52
-34 -52 -66 0 -52 -66 -171 -85 -152 -3 2 0 44 6 92 8 66 8 90 -1 101 -21 26
-47 16 -89 -31 l-40 -45 -3 43 c-5 75 -55 60 -105 -32 l-24 -45 5 35 c3 19 8
50 12 68 5 25 3 32 -9 32 -22 0 -60 -34 -62 -56 -3 -50 -39 -60 -48 -14 -12
59 -53 80 -121 60z m76 -71 c5 -34 -14 -39 -44 -12 -21 19 -23 44 -6 61 17 17
45 -11 50 -49z m-97 10 c-9 -29 30 -69 67 -69 23 0 28 -4 28 -25 0 -14 -9 -34
-20 -45 -46 -46 -94 -9 -94 73 -1 51 7 87 19 87 4 0 3 -9 0 -21z m726 5 c19
-23 17 -105 -4 -137 -13 -21 -25 -27 -53 -27 -22 0 -37 6 -41 15 -7 20 14 94
38 134 21 34 40 39 60 15z"/>
<path d="M8525 8956 c-20 -21 -25 -35 -25 -78 0 -45 -5 -60 -29 -88 -16 -19
-32 -33 -35 -30 -3 3 0 50 5 104 6 53 8 100 5 104 -4 3 -16 1 -27 -6 -14 -9
-25 -9 -39 -2 -80 43 -165 -54 -147 -167 13 -79 81 -98 124 -35 l22 33 3 -33
c3 -29 7 -33 35 -36 26 -3 36 3 55 28 l23 32 5 -29 c4 -22 11 -29 33 -31 26
-3 27 -2 27 45 0 39 7 57 35 96 20 26 39 47 44 47 5 0 8 -42 7 -92 l-1 -93 32
-3 c27 -3 35 2 57 35 24 35 26 36 26 12 0 -32 17 -49 50 -49 29 0 48 17 73 65
l16 30 1 -33 c0 -27 -11 -46 -50 -89 -63 -72 -86 -118 -74 -152 12 -34 52 -53
89 -43 50 14 65 47 76 168 10 105 12 111 50 161 57 75 59 97 4 38 l-47 -50 7
35 c17 96 18 130 3 130 -24 0 -48 -34 -48 -69 0 -17 -11 -53 -24 -79 -63 -124
-91 -77 -54 91 12 57 6 67 -30 45 -23 -14 -28 -26 -33 -72 -6 -55 -47 -136
-69 -136 -10 0 -6 98 5 156 3 11 -1 29 -9 39 -22 30 -57 12 -100 -52 l-39 -58
8 45 c16 93 5 111 -40 66z m-147 -28 c19 -19 14 -59 -16 -113 -31 -57 -53 -67
-70 -30 -18 38 -15 86 8 123 21 34 55 43 78 20z m513 -301 c-8 -86 -28 -121
-55 -97 -19 15 -21 62 -5 93 16 30 60 89 64 85 2 -2 0 -38 -4 -81z"/>
<path d="M10653 8958 c-18 -20 -21 -39 -24 -128 l-4 -105 26 -3 c25 -3 27 0
31 46 3 33 15 64 37 95 47 68 55 62 48 -37 -6 -89 0 -106 39 -106 22 0 74 51
74 73 0 7 6 3 12 -8 27 -49 51 -65 96 -65 38 0 50 5 77 34 18 19 35 48 38 65
4 16 15 35 25 40 19 10 20 7 18 -62 -1 -72 -1 -72 27 -75 26 -3 27 -1 27 41 0
34 8 56 33 93 51 76 58 71 55 -38 l-3 -93 32 -3 c28 -3 36 3 63 39 16 23 30
35 30 27 0 -8 9 -27 21 -42 35 -44 113 -33 157 24 23 30 62 105 62 120 0 25
-18 6 -40 -41 -42 -89 -114 -119 -144 -60 -15 28 -15 28 24 40 42 12 90 61 90
91 0 29 -28 50 -67 50 -27 0 -43 -8 -69 -34 -19 -19 -34 -44 -34 -55 0 -39
-60 -135 -74 -120 -3 2 0 44 5 92 11 94 5 117 -31 117 -20 0 -62 -45 -86 -92
-23 -44 -29 -26 -14 37 7 30 10 58 6 62 -15 15 -61 -25 -64 -55 -2 -17 -10
-33 -19 -36 -9 -4 -16 -5 -17 -4 -13 33 -45 84 -58 92 -25 15 -108 -9 -135
-40 -13 -14 -25 -37 -28 -52 -7 -37 -49 -115 -64 -120 -9 -3 -11 22 -9 100 l3
103 -27 3 c-23 3 -33 -5 -60 -44 -18 -25 -38 -54 -45 -63 -9 -12 -9 -6 -3 29
13 65 12 90 -3 90 -8 0 -23 -10 -34 -22z m386 -11 c6 -8 14 -28 17 -45 6 -27
4 -32 -13 -32 -26 0 -43 19 -43 50 0 40 18 52 39 27z m489 -33 c3 -32 -17 -57
-55 -68 -20 -6 -21 -4 -13 29 9 40 37 77 54 72 6 -2 12 -17 14 -33z m-542 -61
c10 -7 31 -13 47 -13 27 0 29 -2 23 -27 -7 -29 -40 -63 -60 -63 -7 0 -20 6
-30 13 -21 16 -33 99 -21 144 l8 28 8 -35 c4 -18 15 -40 25 -47z"/>
<path d="M9045 8767 c-17 -13 -18 -18 -7 -42 10 -22 9 -30 -3 -48 -17 -25 -19
-37 -5 -37 10 0 70 77 70 90 0 4 -8 17 -17 29 -16 20 -20 20 -38 8z"/>
</g>
</svg>
